# xmcd CD database file
#
# Track frame offsets:
#	150
#	22537
#	41547
#	63930
#
# Disc length: 1102 seconds
#
# Revision: 7
# Processed by: cddbd v1.5.2PL0 Copyright (c) Steve Scherf et al.
# Submitted via: CDex 1.70beta3
#
DISCID=21044c04
DTITLE=EXILE - Rising Sun
DYEAR=2011
DGENRE=J-Pop
TTITLE0=Rising Sun
TTITLE1=いつかきっと・・・
TTITLE2=Rising Sun -instrumental-
TTITLE3=いつかきっと・・・ -Instrumental-
EXTD=YEAR: 2011
EXTT0=
EXTT1=
EXTT2=
EXTT3=
PLAYORDER=
